%TF.GenerationSoftware,KiCad,Pcbnew,(6.0.1)*%
%TF.CreationDate,2022-02-28T16:14:51-08:00*%
%TF.ProjectId,trafficLight,74726166-6669-4634-9c69-6768742e6b69,rev?*%
%TF.SameCoordinates,Original*%
%TF.FileFunction,Copper,L1,Top*%
%TF.FilePolarity,Positive*%
%FSLAX46Y46*%
G04 Gerber Fmt 4.6, Leading zero omitted, Abs format (unit mm)*
G04 Created by KiCad (PCBNEW (6.0.1)) date 2022-02-28 16:14:51*
%MOMM*%
%LPD*%
G01*
G04 APERTURE LIST*
%TA.AperFunction,ComponentPad*%
%ADD10C,1.400000*%
%TD*%
%TA.AperFunction,ComponentPad*%
%ADD11O,1.400000X1.400000*%
%TD*%
%TA.AperFunction,ComponentPad*%
%ADD12O,1.730000X2.030000*%
%TD*%
%TA.AperFunction,ComponentPad*%
%ADD13R,1.730000X2.030000*%
%TD*%
%TA.AperFunction,ComponentPad*%
%ADD14R,1.700000X1.800000*%
%TD*%
%TA.AperFunction,ComponentPad*%
%ADD15C,1.700000*%
%TD*%
%TA.AperFunction,Conductor*%
%ADD16C,0.250000*%
%TD*%
G04 APERTURE END LIST*
D10*
%TO.P,R3,1*%
%TO.N,Net-(J1-Pad4)*%
X129540000Y-111760000D03*
D11*
%TO.P,R3,2*%
%TO.N,Net-(D3-Pad2)*%
X129540000Y-106680000D03*
%TD*%
D10*
%TO.P,R2,1*%
%TO.N,Net-(J1-Pad3)*%
X127000000Y-111760000D03*
D11*
%TO.P,R2,2*%
%TO.N,Net-(D2-Pad2)*%
X127000000Y-106680000D03*
%TD*%
%TO.P,R1,2*%
%TO.N,Net-(D1-Pad2)*%
X124460000Y-106680000D03*
D10*
%TO.P,R1,1*%
%TO.N,Net-(J1-Pad2)*%
X124460000Y-111760000D03*
%TD*%
D12*
%TO.P,J1,4,Pin_4*%
%TO.N,Net-(J1-Pad4)*%
X130820000Y-121620000D03*
%TO.P,J1,3,Pin_3*%
%TO.N,Net-(J1-Pad3)*%
X128280000Y-121620000D03*
%TO.P,J1,2,Pin_2*%
%TO.N,Net-(J1-Pad2)*%
X125740000Y-121620000D03*
D13*
%TO.P,J1,1,Pin_1*%
%TO.N,Net-(D1-Pad1)*%
X123200000Y-121620000D03*
%TD*%
D14*
%TO.P,D3,1,K*%
%TO.N,Net-(D1-Pad1)*%
X129540000Y-99060000D03*
D15*
%TO.P,D3,2,A*%
%TO.N,Net-(D3-Pad2)*%
X127000000Y-99060000D03*
%TD*%
D14*
%TO.P,D2,1,K*%
%TO.N,Net-(D1-Pad1)*%
X129540000Y-88900000D03*
D15*
%TO.P,D2,2,A*%
%TO.N,Net-(D2-Pad2)*%
X127000000Y-88900000D03*
%TD*%
D14*
%TO.P,D1,1,K*%
%TO.N,Net-(D1-Pad1)*%
X129540000Y-78740000D03*
D15*
%TO.P,D1,2,A*%
%TO.N,Net-(D1-Pad2)*%
X127000000Y-78740000D03*
%TD*%
D16*
%TO.N,Net-(J1-Pad4)*%
X130820000Y-113040000D02*
X130820000Y-121620000D01*
X129540000Y-111760000D02*
X130820000Y-113040000D01*
%TO.N,Net-(J1-Pad3)*%
X127000000Y-111760000D02*
X128280000Y-113040000D01*
X128280000Y-113040000D02*
X128280000Y-121620000D01*
%TO.N,Net-(J1-Pad2)*%
X125740000Y-113040000D02*
X125740000Y-121620000D01*
X124460000Y-111760000D02*
X125740000Y-113040000D01*
%TO.N,Net-(D1-Pad1)*%
X121920000Y-114300000D02*
X123200000Y-115580000D01*
X121920000Y-73660000D02*
X121920000Y-114300000D01*
X129540000Y-73660000D02*
X121920000Y-73660000D01*
X129540000Y-78740000D02*
X129540000Y-73660000D01*
X123200000Y-115580000D02*
X123200000Y-121620000D01*
%TO.N,Net-(D1-Pad2)*%
X124125969Y-106345969D02*
X124460000Y-106680000D01*
X124125969Y-81614031D02*
X124125969Y-106345969D01*
X127000000Y-78740000D02*
X124125969Y-81614031D01*
%TO.N,Net-(D2-Pad2)*%
X125175489Y-104855489D02*
X127000000Y-106680000D01*
X125175489Y-90724511D02*
X125175489Y-104855489D01*
X127000000Y-88900000D02*
X125175489Y-90724511D01*
%TO.N,Net-(D3-Pad2)*%
X127000000Y-104140000D02*
X129540000Y-106680000D01*
X127000000Y-99060000D02*
X127000000Y-104140000D01*
%TO.N,Net-(D1-Pad1)*%
X129540000Y-88900000D02*
X129540000Y-99060000D01*
X129540000Y-78740000D02*
X129540000Y-88900000D01*
%TD*%
M02*
