%TF.GenerationSoftware,KiCad,Pcbnew,(6.0.4)*%
%TF.CreationDate,2022-04-13T10:32:48-07:00*%
%TF.ProjectId,trafficLight,74726166-6669-4634-9c69-6768742e6b69,rev?*%
%TF.SameCoordinates,Original*%
%TF.FileFunction,Copper,L2,Bot*%
%TF.FilePolarity,Positive*%
%FSLAX46Y46*%
G04 Gerber Fmt 4.6, Leading zero omitted, Abs format (unit mm)*
G04 Created by KiCad (PCBNEW (6.0.4)) date 2022-04-13 10:32:48*
%MOMM*%
%LPD*%
G01*
G04 APERTURE LIST*
G04 Aperture macros list*
%AMRoundRect*
0 Rectangle with rounded corners*
0 $1 Rounding radius*
0 $2 $3 $4 $5 $6 $7 $8 $9 X,Y pos of 4 corners*
0 Add a 4 corners polygon primitive as box body*
4,1,4,$2,$3,$4,$5,$6,$7,$8,$9,$2,$3,0*
0 Add four circle primitives for the rounded corners*
1,1,$1+$1,$2,$3*
1,1,$1+$1,$4,$5*
1,1,$1+$1,$6,$7*
1,1,$1+$1,$8,$9*
0 Add four rect primitives between the rounded corners*
20,1,$1+$1,$2,$3,$4,$5,0*
20,1,$1+$1,$4,$5,$6,$7,0*
20,1,$1+$1,$6,$7,$8,$9,0*
20,1,$1+$1,$8,$9,$2,$3,0*%
G04 Aperture macros list end*
%TA.AperFunction,ComponentPad*%
%ADD10R,1.700000X1.800000*%
%TD*%
%TA.AperFunction,ComponentPad*%
%ADD11C,1.700000*%
%TD*%
%TA.AperFunction,ComponentPad*%
%ADD12C,1.600000*%
%TD*%
%TA.AperFunction,ComponentPad*%
%ADD13O,1.600000X1.600000*%
%TD*%
%TA.AperFunction,ComponentPad*%
%ADD14RoundRect,0.250000X-0.350000X-0.625000X0.350000X-0.625000X0.350000X0.625000X-0.350000X0.625000X0*%
%TD*%
%TA.AperFunction,ComponentPad*%
%ADD15O,1.200000X1.750000*%
%TD*%
%TA.AperFunction,Conductor*%
%ADD16C,0.250000*%
%TD*%
G04 APERTURE END LIST*
D10*
X129540000Y-78740000D03*
D11*
X127000000Y-78740000D03*
D10*
X129540000Y-99060000D03*
D11*
X127000000Y-99060000D03*
D12*
X127254000Y-116158031D03*
D13*
X127254000Y-105998031D03*
D12*
X132080000Y-116158031D03*
D13*
X132080000Y-105998031D03*
D12*
X122428000Y-116158031D03*
D13*
X122428000Y-105998031D03*
D10*
X129540000Y-88900000D03*
D11*
X127000000Y-88900000D03*
D14*
X124000000Y-123910000D03*
D15*
X126000000Y-123910000D03*
X128000000Y-123910000D03*
X130000000Y-123910000D03*
D16*
X121412000Y-85598000D02*
X119126000Y-87884000D01*
X129540000Y-99060000D02*
X132588000Y-99060000D01*
X132588000Y-99060000D02*
X133096000Y-98552000D01*
X133096000Y-74168000D02*
X132588000Y-73660000D01*
X133096000Y-98552000D02*
X133096000Y-74168000D01*
X119126000Y-119036000D02*
X124000000Y-123910000D01*
X119126000Y-87884000D02*
X119126000Y-119036000D01*
X121412000Y-73914000D02*
X121412000Y-85598000D01*
X132588000Y-73660000D02*
X121666000Y-73660000D01*
X129540000Y-78740000D02*
X129540000Y-88900000D01*
X129540000Y-88900000D02*
X129540000Y-99060000D01*
X121666000Y-73660000D02*
X121412000Y-73914000D01*
X122428000Y-87082245D02*
X122428000Y-105998031D01*
X127000000Y-78740000D02*
X127000000Y-82510245D01*
X127000000Y-82510245D02*
X122428000Y-87082245D01*
X125225489Y-103969520D02*
X127254000Y-105998031D01*
X125225489Y-90674511D02*
X125225489Y-103969520D01*
X127000000Y-88900000D02*
X125225489Y-90674511D01*
X127000000Y-100918031D02*
X132080000Y-105998031D01*
X127000000Y-99060000D02*
X127000000Y-100918031D01*
X126000000Y-119730031D02*
X126000000Y-123910000D01*
X122428000Y-116158031D02*
X126000000Y-119730031D01*
X127254000Y-116158031D02*
X128000000Y-116904031D01*
X128000000Y-116904031D02*
X128000000Y-123910000D01*
X132080000Y-116158031D02*
X132080000Y-121830000D01*
X132080000Y-121830000D02*
X130000000Y-123910000D01*
M02*
